<svg width="30" height="31" viewBox="0 0 30 31" fill="none" xmlns="http://www.w3.org/2000/svg">
<rect y="28" width="3" height="3" transform="rotate(-45 0 28)" fill="black"/>
<rect x="6.36395" y="21.636" width="3" height="3" transform="rotate(-45 6.36395 21.636)" fill="black"/>
<rect x="12.7279" y="15.2721" width="3" height="3" transform="rotate(-45 12.7279 15.2721)" fill="black"/>
<rect x="19.0919" y="8.90811" width="3" height="3" transform="rotate(-45 19.0919 8.90811)" fill="black"/>
<rect x="25.4558" y="2.54416" width="3" height="3" transform="rotate(-45 25.4558 2.54416)" fill="black"/>
<rect width="3" height="3" transform="matrix(-0.707107 -0.707107 -0.707107 0.707107 29.6985 28)" fill="black"/>
<rect width="3" height="3" transform="matrix(-0.707107 -0.707107 -0.707107 0.707107 23.3345 21.636)" fill="black"/>
<rect width="3" height="3" transform="matrix(-0.707107 -0.707107 -0.707107 0.707107 16.9706 15.2721)" fill="black"/>
<rect width="3" height="3" transform="matrix(-0.707107 -0.707107 -0.707107 0.707107 10.6066 8.90811)" fill="black"/>
<rect width="3" height="3" transform="matrix(-0.707107 -0.707107 -0.707107 0.707107 4.24265 2.54416)" fill="black"/>
</svg>
