<svg width="400" height="400" viewBox="0 0 400 400" fill="none" xmlns="http://www.w3.org/2000/svg">
<rect width="400" height="400" fill="white"/>
<path d="M84.381 39.9359H39.9365V84.3804" stroke="#5241FF" stroke-width="21.9002"/>
<path d="M316.264 39.9357H360.708V84.3802" stroke="#5241FF" stroke-width="21.9002"/>
<path d="M84.381 360.709H39.9365V316.264" stroke="#5241FF" stroke-width="21.9002"/>
<path d="M316.264 360.709H360.708V316.264" stroke="#5241FF" stroke-width="21.9002"/>
<path d="M160.497 188.184V134.159H133.14V188.184H106.001V80.2429H133.14V107.255H160.497V80.2429H187.636V188.184H160.497Z" fill="#5241FF"/>
<path d="M187.592 80.3016V188.134H160.562V134.11H133.096V188.134H106.066V80.3016H133.096V107.314H160.562V80.3016H187.592ZM187.701 80.1935H160.453V107.206H133.205V80.1935H105.957V188.242H133.205V134.218H160.453V188.242H187.701V80.1935Z" fill="#5241FF"/>
<path d="M215 188.183V80.2426H296.635V107.147H242.139V161.279H296.635V188.183H215Z" fill="#5241FF"/>
<path d="M296.586 80.3014V107.098H242.09V161.338H296.586V188.134H215.06V80.3014H296.586ZM296.695 80.1934H214.951V188.242H296.695V161.23H242.199V107.206H296.695V80.1934Z" fill="#5241FF"/>
<path d="M160.497 323.244V296.232H133.14V323.244H106.001V215.304H187.636V323.244H160.497ZM133.14 269.328H160.497V242.208H133.14V269.328Z" fill="#5241FF"/>
<path d="M187.592 215.362V323.195H160.562V296.183H133.096V323.195H106.066V215.362H187.592ZM133.096 269.387H160.562V242.158H133.096V269.387ZM187.701 215.254H105.957V323.303H133.205V296.291H160.453V323.303H187.701V215.254ZM133.205 269.279V242.266H160.453V269.279H133.205Z" fill="#5241FF"/>
<path d="M215 323.244V296.34H242.248V242.208H215V215.304H296.635V242.208H269.387V296.34H296.635V323.244H215Z" fill="#5241FF"/>
<path d="M296.586 215.362V242.158H269.338V296.399H296.586V323.195H215.06V296.399H242.308V242.158H215.06V215.362H296.586ZM296.695 215.254H214.951V242.266H242.199V296.291H214.951V323.303H296.695V296.291H269.447V242.266H296.695V215.254Z" fill="#5241FF"/>
</svg>
