<svg width="89" height="77" viewBox="0 0 89 77" fill="none" xmlns="http://www.w3.org/2000/svg">
<path d="M67.8971 0.817984C66.9892 0.985805 66.8987 2.40583 67.8583 2.68266C69.3452 3.11154 69.6152 0.499554 67.8971 0.817984ZM71.8002 1.85647C71.0058 2.64967 72.1996 3.99798 73.0802 3.16892C73.9608 2.33985 72.6219 1.03601 71.8002 1.85647ZM76.515 2.46751C75.6473 2.66689 75.7996 4.2074 76.8267 4.09265C77.9673 3.96499 77.7346 2.18637 76.515 2.46751ZM54.1063 2.60808C52.7516 2.84044 52.9456 5.07089 54.4252 4.9963C56.0815 4.91311 55.9091 2.29969 54.1063 2.60808ZM58.5193 3.36399C57.0684 3.59636 57.2796 5.99893 59.0379 5.67332C60.4041 5.41944 60.0536 3.11871 58.5193 3.36399ZM63.0028 4.12421C61.424 4.17871 61.5677 6.61857 63.1924 6.44932C64.6218 6.30014 64.4465 4.07544 63.0028 4.12421ZM67.1386 4.94897C65.5943 5.21002 66.2666 7.80767 67.8727 7.05893C69.0191 6.52391 68.5306 4.7123 67.1386 4.94897ZM44.7285 5.29322C42.9458 5.60017 43.7114 8.58223 45.5904 7.73738C46.8876 7.15503 46.3317 5.01638 44.7285 5.29322ZM72.4423 7.59251C73.4939 6.6071 71.8921 5.00778 70.9052 6.05774C69.9183 7.10769 71.4325 8.5392 72.4423 7.59251ZM49.0037 6.05056C47.8156 6.25424 47.5973 8.14905 48.8686 8.56214C50.9646 9.24347 51.3179 5.65468 49.0037 6.05056ZM75.6875 6.59849C74.6216 6.83947 74.8601 8.75292 76.1386 8.56501C77.4918 8.36707 77.1858 6.25855 75.6875 6.59849ZM53.2774 6.80648C51.8193 7.10626 52.1095 9.53465 53.7357 9.40125C55.5514 9.25351 55.2009 6.41202 53.2774 6.80648ZM80.9927 8.97094C81.7871 8.17773 80.5933 6.82943 79.7127 7.65849C78.8149 8.50334 80.171 9.7914 80.9927 8.97094ZM84.5855 8.3183C83.7178 8.41584 83.5928 9.6996 84.4447 9.87316C85.7462 10.1385 85.7146 8.19208 84.5855 8.3183ZM39.7667 8.73427C37.938 8.93508 38.2267 11.7335 40.1546 11.4653C41.8296 11.2329 41.5293 8.5392 39.7667 8.73427ZM43.97 9.49305C42.3237 9.77275 42.5708 12.3503 44.2918 12.2929C46.1938 12.2298 46.0415 9.1402 43.97 9.49305ZM74.929 10.7998C73.7668 11.0393 73.8674 13.0159 75.1919 13.0589C76.8396 13.1134 76.7491 10.424 74.929 10.7998ZM79.2731 11.626C78.1023 11.8669 78.3049 13.7976 79.592 13.7402C81.0559 13.6742 80.8849 11.2932 79.2731 11.626ZM34.5922 12.247C33.5292 12.4106 33.0566 13.7101 33.716 14.5349C34.5003 15.516 36.1064 15.09 36.2586 13.8421C36.3764 12.8882 35.5404 12.1007 34.5922 12.247ZM83.758 12.4507C82.5513 12.6257 82.682 14.6166 84.1373 14.347C85.2606 14.139 85.0064 12.2686 83.758 12.4507ZM38.7281 13.003C37.1292 13.3271 37.4582 16.1586 39.386 15.8617C41.2578 15.5733 40.8814 12.5655 38.7281 13.003ZM88.0317 13.3472C87.0218 13.5236 87.2172 15.1287 88.2745 15.0369C89.3318 14.9451 89.1795 13.1464 88.0317 13.3472ZM78.7861 15.767C77.4703 15.7942 77.1255 17.712 78.427 18.0849C80.2629 18.6113 80.5301 15.7311 78.7861 15.767ZM29.3517 15.8258C28.2298 16.0151 27.8692 17.7163 28.8633 18.4134C30.2682 19.3988 31.8585 17.6733 30.9161 16.3637C30.5469 15.8502 29.9536 15.724 29.3517 15.8244V15.8258ZM82.8587 16.652C82.5341 16.7194 82.106 17.1712 82.0543 17.5011C81.8675 18.7175 83.3773 19.3099 84.0496 18.323C84.6142 17.4968 83.8586 16.4454 82.8573 16.652H82.8587ZM87.3436 17.4753C86.0062 17.6302 86.259 19.6728 87.6654 19.4547C88.8362 19.2726 88.5834 17.3319 87.3436 17.4753ZM24.387 19.3386C22.3055 19.6929 23.2234 23.0321 25.3021 22.1112C26.7789 21.4571 26.1612 19.0373 24.387 19.3386ZM77.6886 20.0256C76.4043 20.2609 76.4546 22.3192 77.8265 22.5401C79.7615 22.8528 79.8564 19.6269 77.6886 20.0256ZM55.4164 20.2336C54.2456 20.4115 53.6926 21.886 54.4712 22.7968C55.4667 23.963 57.4146 23.0837 57.2092 21.5776C57.0929 20.7227 56.2769 20.1031 55.4164 20.2336ZM82.1706 20.8518C80.6292 21.0985 80.9366 23.5542 82.6892 23.23C84.097 22.969 83.7379 20.6022 82.1706 20.8518ZM86.3754 21.7469C85.2405 21.9821 85.3425 23.8941 86.6383 23.9372C88.23 23.9888 88.1553 21.3797 86.3754 21.7469ZM19.1451 22.9173C17.5462 23.2415 17.8752 26.0729 19.803 25.776C21.7309 25.4791 21.2985 22.4798 19.1451 22.9173ZM23.5596 23.6058C21.8242 23.8999 22.1173 26.7657 24.0164 26.6137C26.062 26.4487 25.8078 23.2243 23.5596 23.6058ZM50.2449 23.7435C48.3228 24.0705 48.7121 27.1186 50.7017 26.9579C52.9039 26.7786 52.5835 23.3462 50.2449 23.7435ZM77.2102 24.2255C75.3628 24.3187 75.5295 27.2204 77.5277 26.9579C79.1252 26.7471 78.9398 24.138 77.2102 24.2255ZM54.7283 24.5023C52.2574 24.7963 53.2831 28.6763 55.6434 27.5518C57.2509 26.7858 56.468 24.2957 54.7283 24.5023ZM81.5515 25.0531C79.8262 25.1119 79.8966 27.8071 81.7397 27.6522C83.35 27.5159 83.182 24.9986 81.5515 25.0531ZM85.6169 25.9467C84.3053 26.2221 84.5021 28.4095 86.0062 28.3364C87.6554 28.256 87.4169 25.5695 85.6169 25.9467ZM14.1129 26.4975C12.741 26.7485 12.6907 29.1009 14.3097 29.2988C16.4228 29.557 16.5047 26.0615 14.1129 26.4975ZM18.3866 27.186C16.8696 27.4944 16.9788 30.0619 18.7155 30.1351C20.8948 30.2283 20.787 26.6983 18.3866 27.186ZM49.5567 28.0151C47.7266 28.2646 47.7682 31.0602 49.4763 31.2955C52.2172 31.6727 52.052 27.6751 49.5567 28.0151ZM76.2406 28.4956C74.5627 28.781 74.7968 31.4231 76.5624 31.3643C78.5204 31.2998 78.3365 28.1384 76.2406 28.4956ZM53.9009 28.7724C52.0506 29.0206 52.0463 31.753 53.7615 32.0428C56.4522 32.4989 56.3904 28.4396 53.9009 28.7724ZM80.5157 29.3218C78.993 29.5828 79.1855 32.0729 80.8361 32.0514C82.751 32.027 82.5872 28.9661 80.5157 29.3218ZM84.9992 30.148C84.0827 30.2613 83.5871 31.3571 84.087 32.1245C84.7392 33.1243 86.361 32.727 86.4573 31.5336C86.5219 30.7303 85.7993 30.049 84.9992 30.1494V30.148ZM13.4923 30.7676C11.6205 31.0559 11.9968 34.0638 14.1502 33.6263C15.7491 33.3022 15.4201 30.4707 13.4923 30.7676ZM44.4527 31.525C42.3122 31.8491 42.68 35.2773 45.1092 34.8656C47.1074 34.5271 46.7009 31.185 44.4527 31.525ZM48.7968 32.2823C46.6564 32.6065 47.0241 36.0346 49.4533 35.623C51.4515 35.2844 51.045 31.9424 48.7968 32.2823ZM74.6977 35.2701C76.163 36.7332 78.3523 34.3076 76.6385 33.0224C75.1617 31.9165 73.4249 33.9993 74.6977 35.2701ZM53.2142 33.0411C51.0349 33.2491 51.2662 36.7059 53.671 36.3903C55.7195 36.1207 55.4394 32.8302 53.2142 33.0411ZM79.8262 33.589C78.0679 33.8702 78.3379 36.736 80.4137 36.3789C82.0615 36.0963 81.7253 33.2849 79.8262 33.589ZM8.25031 34.4152C6.90714 34.6892 6.89565 36.8221 8.33363 37.1233C10.4913 37.5737 10.6206 33.9318 8.25031 34.4152ZM83.4549 36.7159C84.686 37.9452 86.6139 36.092 85.3885 34.8197C84.1473 33.5302 82.1965 35.4594 83.4549 36.7159ZM12.8056 35.0349C10.8878 35.2443 11.1564 38.2593 13.2624 37.9725C15.0294 37.7329 14.7378 34.8226 12.8056 35.0349ZM43.8364 35.7937C41.525 35.9959 41.8511 39.5503 44.2918 39.2118C46.3202 38.932 46.0386 35.6014 43.8364 35.7937ZM70.5217 36.2067C68.4258 36.3889 68.7102 39.6363 70.9081 39.3495C72.8762 39.0941 72.5271 36.0318 70.5217 36.2067ZM47.9708 36.6213C45.951 36.9225 46.2469 40.2517 48.4966 40.0394C50.7462 39.8271 50.5063 36.244 47.9708 36.6213ZM74.794 37.0344C73.04 37.261 73.1103 39.8185 74.7135 40.0394C77.1413 40.375 77.0321 36.7461 74.794 37.0344ZM52.2445 37.3758C50.0164 37.7544 50.8223 41.5297 53.2084 40.6791C55.1593 39.9834 54.4281 37.0057 52.2445 37.3758ZM79.0677 37.8591C77.1959 38.1475 77.5722 41.1553 79.7256 40.7178C81.3245 40.3937 80.9955 37.5622 79.0677 37.8591ZM7.56221 38.6839C5.90156 38.965 6.25495 41.6071 7.95008 41.4852C9.90091 41.3461 9.62078 38.3339 7.56221 38.6839ZM38.662 39.3753C36.5158 39.6621 36.7413 43.0846 39.1878 42.7919C41.3009 42.5395 40.9662 39.0669 38.662 39.3753ZM42.9371 40.1326C41.7333 40.3047 41.1688 41.6028 41.6759 42.6643C42.1255 43.6067 43.4356 43.8577 44.2588 43.2409C45.7054 42.1551 44.7429 39.8744 42.9386 40.1326H42.9371ZM69.7632 40.4726C67.6385 40.6619 67.9057 43.9796 70.1511 43.6884C72.1565 43.4274 71.806 40.2904 69.7632 40.4726ZM47.2813 40.89C46.0774 41.0621 45.5129 42.3602 46.02 43.4216C46.4696 44.364 47.7797 44.615 48.6029 43.9982C50.0495 42.9124 49.087 40.6318 47.2827 40.89H47.2813ZM74.0355 41.3031C71.9913 41.5799 72.3648 44.7542 74.6216 44.3669C76.4015 44.0614 76.0409 41.032 74.0355 41.3031ZM50.6327 42.135C48.9936 43.7716 51.5349 46.2072 53.1179 44.582C54.6795 42.977 52.2488 40.5228 50.6327 42.135ZM78.3106 42.1293C77.1571 42.2899 76.6644 43.7716 77.4315 44.6236C77.9285 45.1759 78.8824 45.2447 79.4656 44.7958C80.6939 43.8491 79.8564 41.9141 78.3121 42.1293H78.3106ZM6.80371 43.0214C5.14307 43.3026 5.49646 45.9447 7.19158 45.8228C9.14241 45.6836 8.86228 42.6715 6.80371 43.0214ZM37.6952 43.7099C36.0144 43.9954 35.9455 46.824 37.8331 47.1194C40.4763 47.5325 40.6214 43.2122 37.6952 43.7099ZM42.3898 44.3984C40.077 44.4816 40.2048 48.1005 42.6426 47.8926C44.8406 47.7047 44.6107 44.3195 42.3898 44.3984ZM70.3033 45.2332C69.6009 44.5318 68.2922 44.6509 67.7635 45.5058C66.7867 47.085 68.7131 48.7933 70.1554 47.6874C70.9024 47.1151 70.9613 45.8916 70.3033 45.2332ZM46.6635 45.1558C44.3392 45.2806 44.5533 48.9855 47.05 48.6456C49.1516 48.3587 48.8787 45.0367 46.6635 45.1558ZM73.1376 45.6377C72.6162 45.7267 72.02 46.3234 71.9309 46.8426C71.6479 48.5007 73.6318 49.4833 74.7078 48.1694C75.6674 46.9975 74.6259 45.3853 73.1376 45.6377ZM50.6586 45.982C48.9778 46.2674 48.9089 49.096 50.7965 49.3915C53.4397 49.8046 53.5848 45.4843 50.6586 45.982ZM1.77006 46.6719C-0.0126945 46.9789 0.752984 49.9609 2.63199 49.1161C3.92919 48.5337 3.37324 46.3951 1.77006 46.6719ZM56.6504 49.6597C58.2895 48.0231 55.7483 45.5875 54.1652 47.2127C52.6037 48.8177 55.0343 51.2719 56.6504 49.6597ZM32.8009 47.2241C30.6547 47.511 30.8802 50.9334 33.3267 50.6408C35.4398 50.3884 35.1051 46.9158 32.8009 47.2241ZM6.25495 47.2887C4.43629 47.4336 4.57132 50.2837 6.51066 50.0972C8.30921 49.9251 8.05782 47.1438 6.25495 47.2887ZM37.0746 47.9801C34.9456 48.3128 35.2473 51.8199 37.8001 51.3896C39.7969 51.0539 39.432 47.6114 37.0746 47.9801ZM41.3498 48.736C39.3127 49.086 39.6101 52.2746 41.7405 52.2229C44.141 52.1655 43.9097 48.2956 41.3498 48.736ZM68.3123 49.0831C66.1431 49.1749 66.2681 52.5873 68.5709 52.3707C70.6179 52.1785 70.401 48.9956 68.3123 49.0831ZM45.905 49.4933C43.5807 49.6181 43.7948 53.3231 46.2915 52.9831C48.3931 52.6963 48.1202 49.3743 45.905 49.4933ZM72.5185 49.9078C70.7084 50.1302 70.7185 52.8139 72.4366 53.052C74.9319 53.3962 74.8457 49.621 72.5185 49.9078ZM50.2492 50.2507C47.9248 50.3755 48.1389 54.0804 50.6356 53.7405C52.7373 53.4536 52.4643 50.1316 50.2492 50.2507ZM27.7672 50.8029C25.5808 51.0611 25.8911 54.4849 28.2944 54.1536C30.3171 53.8739 29.9824 50.5418 27.7672 50.8029ZM0.942608 51.008C-0.341663 51.2432 -0.291384 53.3016 1.08052 53.5225C3.01554 53.8352 3.11036 50.6093 0.942608 51.008ZM55.8919 53.9972C57.531 52.3606 54.9898 49.9251 53.4067 51.5502C51.8452 53.1553 54.2758 55.6095 55.8919 53.9972ZM32.1128 51.5588C29.8603 51.794 30.1663 55.2953 32.5696 54.9798C34.6741 54.7029 34.3294 51.3279 32.1128 51.5588ZM5.35568 51.6277C4.84858 51.708 4.29981 52.2573 4.21793 52.7637C4.02974 53.9413 5.35137 54.832 6.3354 54.1894C7.59525 53.3675 6.86118 51.3867 5.35568 51.6277ZM35.3938 52.8067C33.7547 54.4433 36.296 56.8789 37.8791 55.2537C39.4406 53.6487 37.01 51.1945 35.3938 52.8067ZM40.6617 53.0764C39.4578 53.2485 38.8933 54.5466 39.4004 55.608C39.85 56.5504 41.1601 56.8014 41.9833 56.1846C43.4299 55.0988 42.4674 52.8182 40.6631 53.0764H40.6617ZM67.3469 53.4206C65.0801 53.7433 65.9003 57.368 68.1715 56.5848C69.9844 55.9595 69.3883 53.1294 67.3469 53.4206ZM44.9368 53.8337C42.5507 54.178 43.4141 58.035 45.8303 57.2045C47.7668 56.5389 47.1304 53.5182 44.9368 53.8337ZM49.2795 54.5896C47.1505 54.9224 47.4522 58.4294 50.0049 57.9991C52.0017 57.6635 51.6369 54.221 49.2795 54.5896ZM27.1495 55.139C24.897 55.2609 25.0881 58.7292 27.4052 58.4969C29.5054 58.2874 29.2727 55.0228 27.1495 55.139ZM53.694 55.347C51.4587 55.6181 51.7992 59.0993 54.2226 58.7651C56.3243 58.4753 55.935 55.0744 53.694 55.347ZM31.2135 55.8978C30.6188 55.991 29.9422 56.6279 29.8588 57.2289C29.5773 59.27 32.0524 60.0187 33.0006 58.438C33.7533 57.1815 32.64 55.674 31.2149 55.8978H31.2135ZM4.52823 56.0355C2.96814 56.3051 3.26694 58.8784 4.98648 58.7005C6.70603 58.5227 6.5164 55.6927 4.52823 56.0355ZM9.08351 56.6537C7.15136 56.7512 7.33954 59.7189 9.33778 59.5296C11.1062 59.3618 10.9022 56.5605 9.08351 56.6537ZM35.4887 56.6551C33.4746 56.9779 33.7863 60.2152 35.944 60.0761C38.2468 59.9284 37.9911 56.2535 35.4887 56.6551ZM39.8342 57.4139C37.8144 57.7151 38.1104 61.0443 40.36 60.832C42.5665 60.6226 42.3697 57.0367 39.8342 57.4139ZM17.7028 58.0307C15.6844 58.1411 15.7678 61.3555 17.9571 61.1806C19.9653 61.0199 19.7513 57.9188 17.7028 58.0307ZM43.2546 61.0888C44.8937 62.7254 47.333 60.188 45.7054 58.6073C44.0979 57.0481 41.6399 59.4751 43.2546 61.0888ZM21.7668 58.788C19.8447 59.1151 20.234 62.1631 22.2236 62.0025C24.4258 61.8232 24.1055 58.3907 21.7668 58.788ZM48.4535 58.9286C46.4337 59.2298 46.7296 62.559 48.9793 62.3467C51.2289 62.1344 50.989 58.5514 48.4535 58.9286ZM26.2502 59.478C25.6469 59.5525 24.9387 60.1421 24.8338 60.7502C24.5178 62.6078 26.7976 63.5258 27.8132 62.0727C28.632 60.898 27.6537 59.3058 26.2502 59.478ZM52.7962 59.6831C50.4488 60.0847 51.4228 63.9575 53.8491 62.9377C55.629 62.1889 54.8863 59.3259 52.7962 59.6831ZM31.9648 63.0854C33.5508 61.5019 31.1 59.1151 29.5485 60.7072C28.0201 62.2764 30.399 64.6474 31.9648 63.0854ZM3.76973 60.3716C2.32026 60.6398 2.51132 63.0467 4.1576 62.9678C5.903 62.8832 5.73205 60.0101 3.76973 60.3716ZM8.32502 60.9912C6.44745 61.0859 6.59829 63.9862 8.57928 63.7983C10.3089 63.6348 10.102 60.9009 8.32502 60.9912ZM34.6612 60.9912C33.0293 61.2666 32.8899 63.9733 34.7445 64.3175C37.3274 64.7952 37.5027 60.5121 34.6612 60.9912ZM12.5987 61.6783C10.6709 61.8318 10.8533 64.8167 12.8544 64.6245C14.8556 64.4323 14.4418 61.5305 12.5987 61.6783ZM39.0053 61.7486C37.4294 62.0125 37.2183 64.5528 38.9249 65.0333C40.5309 65.4851 41.7563 63.6678 40.7766 62.3582C40.3542 61.793 39.6834 61.6353 39.0068 61.7486H39.0053ZM17.0032 62.3783C14.9604 62.4399 15.0811 65.5453 17.131 65.455C19.181 65.3646 18.9641 62.318 17.0032 62.3783ZM43.4184 62.5073C41.0883 62.8688 41.9287 66.6312 44.3134 65.8107C46.2024 65.1609 45.5631 62.1746 43.4184 62.5073ZM21.0083 63.1256C20.4868 63.2145 19.8906 63.8112 19.8016 64.3304C19.5186 65.9886 21.5024 66.9711 22.5784 65.6572C23.538 64.4853 22.4965 62.8731 21.0083 63.1256ZM47.7639 63.2661C45.8519 63.5387 45.9453 66.3758 47.6835 66.6154C50.4747 66.9998 50.2808 62.9075 47.7639 63.2661ZM25.3524 63.8829C23.4303 64.2099 23.8196 67.258 25.8092 67.0973C28.0114 66.918 27.6911 63.4856 25.3524 63.8829ZM52.177 64.022C49.9906 64.2802 50.3009 67.7041 52.7042 67.3727C54.7269 67.093 54.3922 63.761 52.177 64.022ZM29.9091 64.5714C27.6595 64.7191 27.9726 68.1702 30.2955 67.8547C32.2665 67.5864 31.9835 64.4366 29.9091 64.5714ZM3.08019 64.7105C1.58905 64.9601 1.82177 67.2451 3.32871 67.2149C5.12727 67.1791 4.8888 64.4065 3.08019 64.7105ZM34.0421 65.3316C32.2119 65.5812 32.2536 68.3768 33.9616 68.612C36.7025 68.9893 36.5373 64.9917 34.0421 65.3316ZM7.28639 65.3976C5.9935 65.6371 5.90156 67.7643 7.37115 68.0354C9.43834 68.417 9.55039 64.9788 7.28639 65.3976ZM11.6995 66.0875C10.6364 66.2511 10.1638 67.5506 10.8232 68.3754C11.6075 69.3565 13.2136 68.9305 13.3659 67.6826C13.4836 66.7287 12.6476 65.9412 11.6995 66.0875ZM38.3158 66.0861C36.013 66.4777 36.9913 70.2716 39.3688 69.2718C41.0969 68.5446 40.3528 65.7404 38.3158 66.0861ZM17.3465 67.1963C16.0737 65.9255 13.9879 67.6596 15.0955 69.1341C16.3826 70.8468 18.8118 68.6594 17.3465 67.1963ZM42.6599 66.8449C40.699 67.159 40.9576 70.23 42.9817 70.1941C45.3132 70.1525 45.1164 66.4519 42.6599 66.8449ZM20.4609 67.4617C18.6092 67.6266 18.6078 70.4007 20.4423 70.5441C22.7307 70.7234 22.5971 67.2709 20.4609 67.4617ZM46.935 67.6008C44.6323 67.9924 45.6106 71.7863 47.988 70.7865C49.7162 70.0593 48.9721 67.2551 46.935 67.6008ZM24.5939 68.2219C22.3988 68.5733 23.334 72.1348 25.5363 71.2283C27.1869 70.5484 26.5476 67.9106 24.5939 68.2219ZM29.2095 68.9204C27.0676 68.9548 27.1897 72.3414 29.4049 72.1305C31.4002 71.9398 31.2753 68.8874 29.2095 68.9204ZM33.3525 69.6692C32.4992 69.7825 31.847 70.6101 31.9275 71.4679C32.0381 72.6326 33.4488 73.2924 34.4256 72.6699C35.8722 71.749 35.0663 69.4411 33.3511 69.6692H33.3525ZM37.5573 70.4251C35.605 70.7593 35.9239 73.7801 37.9365 73.6954C40.1919 73.5993 39.9103 70.0234 37.5573 70.4251ZM10.8016 70.4925C9.25877 70.808 9.661 73.529 11.5141 73.1317C13.1374 72.7832 12.7568 70.0937 10.8016 70.4925ZM15.1472 71.181C13.7753 71.432 13.725 73.7844 15.344 73.9823C17.4571 74.2405 17.539 70.7449 15.1472 71.181ZM18.7759 74.3768C20.0487 75.6476 22.1345 73.9135 21.0269 72.4389C19.7398 70.7263 17.3106 72.9137 18.7759 74.3768ZM23.9043 72.5594C21.9894 72.8492 22.2825 75.9302 24.4919 75.5558C26.2718 75.2532 25.9256 72.2525 23.9043 72.5594ZM28.1106 73.3153C26.358 73.6165 26.6711 76.5785 28.6378 76.3906C30.7208 76.1912 30.4148 72.9194 28.1106 73.3153Z" fill="black"/>
<path d="M42.3897 44.3984C44.6106 44.3195 44.8405 47.7032 42.6426 47.8925C40.2033 48.1019 40.0769 44.4816 42.3897 44.3984Z" fill="black"/>
<path d="M46.6636 45.1558C48.8788 45.0367 49.1517 48.3602 47.0501 48.6456C44.5519 48.9855 44.3393 45.2806 46.6636 45.1558Z" fill="black"/>
<path d="M41.3498 48.7359C43.9098 48.2956 44.1396 52.1655 41.7406 52.2229C39.6102 52.2731 39.3128 49.0845 41.3498 48.7359Z" fill="black"/>
<path d="M45.9052 49.4933C48.1203 49.3742 48.3933 52.6977 46.2916 52.9831C43.7934 53.3231 43.5808 49.6181 45.9052 49.4933Z" fill="black"/>
<path d="M50.2491 50.2506C52.4642 50.1316 52.7372 53.455 50.6355 53.7404C48.1374 54.0804 47.9248 50.3754 50.2491 50.2506Z" fill="black"/>
<path d="M44.9369 53.8337C47.1305 53.5181 47.7669 56.5389 45.8304 57.2045C43.4141 58.035 42.5508 54.1779 44.9369 53.8337Z" fill="black"/>
<path d="M42.9372 40.1326C44.7415 39.8744 45.704 42.1551 44.2574 43.2409C43.4357 43.8577 42.1255 43.6067 41.6745 42.6643C41.1674 41.6028 41.7334 40.3047 42.9358 40.1326H42.9372Z" fill="black"/>
<path d="M47.2814 40.8899C49.0857 40.6317 50.0482 42.9124 48.6016 43.9982C47.7799 44.615 46.4697 44.364 46.0186 43.4216C45.5115 42.3602 46.0775 41.0621 47.2799 40.8899H47.2814Z" fill="black"/>
<path d="M37.6952 43.7099C40.6214 43.2122 40.4763 47.5311 37.8331 47.1194C35.9455 46.8253 36.0144 43.9953 37.6952 43.7099Z" fill="black"/>
<path d="M50.6585 45.982C53.5847 45.4842 53.4396 49.8031 50.7964 49.3915C48.9087 49.0974 48.9777 46.2674 50.6585 45.982Z" fill="black"/>
<path d="M37.0746 47.98C39.4334 47.6114 39.7969 51.0539 37.8001 51.3895C35.2474 51.8198 34.9457 48.3128 37.0746 47.98Z" fill="black"/>
<path d="M40.6617 53.0763C42.466 52.8181 43.4285 55.0988 41.9819 56.1846C41.1602 56.8014 39.8501 56.5504 39.399 55.608C38.8919 54.5466 39.4579 53.2485 40.6603 53.0763H40.6617Z" fill="black"/>
<path d="M49.2794 54.5896C51.6382 54.221 52.0017 57.6634 50.0049 57.9991C47.4521 58.4294 47.1505 54.9224 49.2794 54.5896Z" fill="black"/>
<path d="M50.6327 42.135C52.2488 40.5213 54.6795 42.9769 53.118 44.582C51.5363 46.2086 48.9951 43.7716 50.6327 42.135Z" fill="black"/>
<path d="M56.6505 49.6597C55.0344 51.2733 52.6038 48.8177 54.1653 47.2126C55.7469 45.5861 58.2882 48.0231 56.6505 49.6597Z" fill="black"/>
<path d="M55.8918 53.9972C54.2757 55.6109 51.845 53.1552 53.4066 51.5502C54.9882 49.9236 57.5295 52.3606 55.8918 53.9972Z" fill="black"/>
<path d="M35.3938 52.8067C37.0099 51.193 39.4405 53.6486 37.879 55.2537C36.2973 56.8803 33.7561 54.4433 35.3938 52.8067Z" fill="black"/>
<path d="M43.2545 61.0887C41.6384 59.4751 44.0978 57.0481 45.7053 58.6073C47.3343 60.1865 44.8936 62.7239 43.2545 61.0887Z" fill="black"/>
<path d="M47.9707 36.6213C50.5062 36.244 50.7016 39.8299 48.4965 40.0394C46.2914 40.2488 45.9509 36.9225 47.9707 36.6213Z" fill="black"/>
<path d="M38.662 39.3752C40.9676 39.0668 41.3023 42.5395 39.1877 42.7919C36.7413 43.0845 36.5158 39.6621 38.662 39.3752Z" fill="black"/>
<path d="M32.8008 47.2241C35.1065 46.9157 35.4412 50.3883 33.3266 50.6407C30.8802 50.9334 30.6546 47.511 32.8008 47.2241Z" fill="black"/>
<path d="M48.4535 58.9286C50.989 58.5513 51.1843 62.1372 48.9792 62.3467C46.7741 62.5561 46.4337 59.2298 48.4535 58.9286Z" fill="black"/>
<path d="M53.6941 55.347C55.9337 55.0759 56.3244 58.4753 54.2228 58.7651C51.7993 59.0993 51.4603 55.618 53.6941 55.347Z" fill="black"/>
<path d="M39.8343 57.4139C42.3698 57.0366 42.5651 60.6225 40.36 60.832C38.1104 61.0457 37.8145 57.7151 39.8343 57.4139Z" fill="black"/>
<path d="M35.4885 56.6551C37.9924 56.2549 38.2481 59.9283 35.9439 60.0761C33.7862 60.2152 33.4745 56.9764 35.4885 56.6551Z" fill="black"/>
<path d="M43.8364 35.7936C46.0387 35.6014 46.3202 38.932 44.2918 39.2117C41.8511 39.5488 41.5236 35.9944 43.8364 35.7936Z" fill="black"/>
<path d="M52.2445 37.3758C54.4266 37.0042 55.1578 39.982 53.2084 40.6791C50.8237 41.5311 50.0164 37.7559 52.2445 37.3758Z" fill="black"/>
<path d="M32.1128 51.5587C34.3308 51.3278 34.6741 54.7029 32.5696 54.9797C30.1648 55.2967 29.8588 51.794 32.1128 51.5587Z" fill="black"/>
<path d="M43.4185 62.5073C45.5647 62.1745 46.2025 65.1609 44.3134 65.8107C41.9288 66.6297 41.0884 62.8688 43.4185 62.5073Z" fill="black"/>
<path d="M52.7961 59.683C54.8848 59.3259 55.6289 62.1875 53.8491 62.9376C51.4227 63.9589 50.4487 60.0861 52.7961 59.683Z" fill="black"/>
<path d="M31.2135 55.8977C32.6386 55.674 33.7533 57.1815 32.9991 58.438C32.051 60.0187 29.5758 59.2714 29.8574 57.2288C29.9407 56.6278 30.6188 55.991 31.2121 55.8977H31.2135Z" fill="black"/>
<path d="M47.764 63.2661C50.2809 62.9075 50.4748 66.9998 47.6836 66.6153C45.9454 66.3758 45.852 63.5386 47.764 63.2661Z" fill="black"/>
<path d="M39.0054 61.7485C39.682 61.6352 40.3528 61.793 40.7752 62.3581C41.7549 63.6677 40.5295 65.4851 38.9235 65.0332C37.2169 64.5527 37.4295 62.0139 39.0039 61.7485H39.0054Z" fill="black"/>
<path d="M44.4528 31.5249C46.701 31.185 47.1076 34.5271 45.1093 34.8656C42.6801 35.2773 42.3124 31.8491 44.4528 31.5249Z" fill="black"/>
<path d="M34.6613 60.9912C37.5028 60.5121 37.3275 64.7951 34.7446 64.3175C32.89 63.9747 33.0294 61.2666 34.6613 60.9912Z" fill="black"/>
<path d="M48.7967 32.2823C51.0449 31.9424 51.4515 35.2844 49.4532 35.6229C47.024 36.0346 46.6563 32.6065 48.7967 32.2823Z" fill="black"/>
<path d="M27.7671 50.8029C29.9823 50.5418 30.317 53.8738 28.2943 54.1535C25.891 54.4863 25.5807 51.061 27.7671 50.8029Z" fill="black"/>
<path d="M53.2141 33.0411C55.4393 32.8288 55.7195 36.1206 53.6709 36.3903C51.2662 36.7073 51.0349 33.249 53.2141 33.0411Z" fill="black"/>
<path d="M52.177 64.022C54.3921 63.761 54.7268 67.093 52.7042 67.3727C50.3008 67.7055 49.9905 64.2802 52.177 64.022Z" fill="black"/>
<path d="M31.9648 63.0854C30.4004 64.6474 28.0215 62.2764 29.5486 60.7072C31.1 59.115 33.5508 61.5018 31.9648 63.0854Z" fill="black"/>
<path d="M27.1494 55.139C29.2726 55.0242 29.5053 58.2874 27.4051 58.4968C25.088 58.7278 24.8969 55.2609 27.1494 55.139Z" fill="black"/>
<path d="M46.935 67.6008C48.9721 67.2537 49.7162 70.0593 47.988 70.7865C45.612 71.7863 44.6323 67.9938 46.935 67.6008Z" fill="black"/>
<path d="M42.6598 66.8449C45.1149 66.4519 45.3131 70.1525 42.9816 70.1941C40.959 70.23 40.7004 67.159 42.6598 66.8449Z" fill="black"/>
<path d="M38.3157 66.0861C40.3527 65.7389 41.0968 68.5446 39.3687 69.2718C36.9926 70.2715 36.0129 66.4791 38.3157 66.0861Z" fill="black"/>
<path d="M34.042 65.3316C36.5359 64.9917 36.7025 68.9892 33.9616 68.612C32.2535 68.3768 32.2119 65.5812 34.042 65.3316Z" fill="black"/>
<path d="M49.5568 28.015C52.0506 27.6751 52.2172 31.6727 49.4763 31.2954C47.7683 31.0602 47.7266 28.2646 49.5568 28.015Z" fill="black"/>
<path d="M64.9737 42.9683C66.6429 42.7389 66.8498 45.1816 65.4635 45.414C63.5989 45.7266 63.3978 43.1849 64.9737 42.9683Z" fill="black"/>
<path d="M53.9009 28.7724C56.3904 28.4396 56.4522 32.4989 53.7615 32.0427C52.0463 31.753 52.0506 29.0205 53.9009 28.7724Z" fill="black"/>
<path d="M26.2503 59.4779C27.6538 59.3044 28.6321 60.898 27.8132 62.0727C26.799 63.5272 24.5178 62.6092 24.8338 60.7502C24.9373 60.142 25.6455 59.5525 26.2503 59.4779Z" fill="black"/>
<path d="M29.9092 64.5714C31.9836 64.4351 32.2666 67.5864 30.2957 67.8546C27.9728 68.1716 27.6596 64.7191 29.9092 64.5714Z" fill="black"/>
<path d="M67.3469 53.4206C69.3896 53.1294 69.9858 55.9594 68.1714 56.5848C65.8988 57.368 65.0786 53.7433 67.3469 53.4206Z" fill="black"/>
<path d="M37.5573 70.425C39.9104 70.0234 40.1919 73.5993 37.9365 73.6954C35.9239 73.7815 35.605 70.7592 37.5573 70.425Z" fill="black"/>
<path d="M68.3124 49.0831C70.3997 48.9941 70.6166 52.177 68.5709 52.3706C66.2696 52.5872 66.1432 49.1763 68.3124 49.0831Z" fill="black"/>
<path d="M70.3033 45.2332C70.9612 45.8916 70.9023 47.1137 70.1553 47.6874C68.713 48.7933 66.7866 47.085 67.7635 45.5057C68.2921 44.6509 69.6022 44.5332 70.3033 45.2332Z" fill="black"/>
<path d="M33.3525 69.6691C35.0677 69.4396 35.8736 71.749 34.427 72.6698C33.4502 73.2924 32.0395 72.6325 31.9289 71.4678C31.847 70.6115 32.4992 69.7839 33.3539 69.6691H33.3525Z" fill="black"/>
<path d="M25.3524 63.8829C27.6926 63.4856 28.0115 66.918 25.8093 67.0973C23.8197 67.2594 23.4289 64.2099 25.3524 63.8829Z" fill="black"/>
<path d="M50.2448 23.7435C52.5849 23.3461 52.9038 26.7786 50.7016 26.9579C48.712 27.12 48.3212 24.0705 50.2448 23.7435Z" fill="black"/>
<path d="M54.7282 24.5023C56.4679 24.2957 57.2508 26.7858 55.6433 27.5517C53.2831 28.6763 52.2574 24.7963 54.7282 24.5023Z" fill="black"/>
<path d="M21.7668 58.788C24.1069 58.3907 24.4258 61.8231 22.2236 62.0024C20.234 62.1645 19.8432 59.115 21.7668 58.788Z" fill="black"/>
<path d="M69.7633 40.4725C71.8061 40.2904 72.1566 43.4273 70.1512 43.6884C67.9059 43.9796 67.6387 40.6619 69.7633 40.4725Z" fill="black"/>
<path d="M29.2095 68.9204C31.2767 68.8874 31.4002 71.9397 29.4048 72.1305C27.1882 72.3428 27.0661 68.9548 29.2095 68.9204Z" fill="black"/>
<path d="M72.5184 49.9078C74.847 49.621 74.9332 53.3962 72.4365 53.052C70.7184 52.8153 70.7084 50.1316 72.5184 49.9078Z" fill="black"/>
<path d="M73.1375 45.6377C74.6258 45.3852 75.6673 46.9975 74.7077 48.1694C73.6317 49.4832 71.6478 48.5007 71.9308 46.8426C72.0199 46.3233 72.6161 45.7266 73.1375 45.6377Z" fill="black"/>
<path d="M24.5939 68.2219C26.5476 67.9092 27.1854 70.5484 25.5363 71.2283C23.3341 72.1348 22.3989 68.5733 24.5939 68.2219Z" fill="black"/>
<path d="M70.5216 36.2067C72.5284 36.0317 72.8775 39.0941 70.908 39.3494C68.7086 39.6349 68.4256 36.3889 70.5216 36.2067Z" fill="black"/>
<path d="M21.0082 63.1255C22.4964 62.8731 23.5379 64.4853 22.5783 65.6572C21.5024 66.9711 19.5185 65.9885 19.8015 64.3304C19.8905 63.8112 20.4867 63.2144 21.0082 63.1255Z" fill="black"/>
<path d="M17.7027 58.0307C19.7498 57.9188 19.9653 61.0213 17.957 61.1805C15.7691 61.3555 15.6844 58.1397 17.7027 58.0307Z" fill="black"/>
<path d="M74.0355 41.303C76.041 41.0319 76.4015 44.0599 74.6217 44.3669C72.3648 44.7556 71.9913 41.5799 74.0355 41.303Z" fill="black"/>
<path d="M55.4165 20.2336C56.277 20.1031 57.093 20.7227 57.2093 21.5776C57.4133 23.0837 55.4668 23.963 54.4713 22.7968C53.6927 21.886 54.2472 20.4115 55.4165 20.2336Z" fill="black"/>
<path d="M28.1106 73.3153C30.4134 72.9194 30.7208 76.1898 28.6378 76.3906C26.6712 76.5799 26.358 73.6179 28.1106 73.3153Z" fill="black"/>
<path d="M20.461 67.4616C22.5957 67.2709 22.7308 70.7234 20.4424 70.5441C18.6093 70.4007 18.6093 67.6266 20.461 67.4616Z" fill="black"/>
<path d="M17.0032 62.3782C18.9641 62.3194 19.1207 65.3689 17.1311 65.4549C15.1415 65.541 14.959 62.4399 17.0032 62.3782Z" fill="black"/>
<path d="M23.9043 72.5594C25.9255 72.2524 26.2717 75.2531 24.4918 75.5558C22.2824 75.9302 21.9894 72.8491 23.9043 72.5594Z" fill="black"/>
<path d="M74.7939 37.0343C77.032 36.746 77.1412 40.375 74.7134 40.0393C73.1102 39.8184 73.0413 37.2595 74.7939 37.0343Z" fill="black"/>
<path d="M23.5596 23.6058C25.8078 23.2242 26.062 26.4487 24.0164 26.6136C22.1173 26.7657 21.8242 23.9013 23.5596 23.6058Z" fill="black"/>
<path d="M78.3107 42.1292C79.8549 41.9141 80.6924 43.849 79.4642 44.7957C78.8824 45.2447 77.9271 45.1758 77.43 44.6236C76.6629 43.7716 77.1557 42.2899 78.3092 42.1292H78.3107Z" fill="black"/>
<path d="M18.3866 27.186C20.7871 26.6983 20.8948 30.2283 18.7156 30.135C16.9788 30.0604 16.871 27.4929 18.3866 27.186Z" fill="black"/>
<path d="M18.7759 74.3767C17.3106 72.9137 19.7398 70.7277 21.027 72.4389C22.1346 73.9135 20.0487 75.6476 18.7759 74.3767Z" fill="black"/>
<path d="M17.3465 67.1963C18.8118 68.6593 16.3826 70.8453 15.0954 69.1341C13.9878 67.6596 16.0737 65.9254 17.3465 67.1963Z" fill="black"/>
<path d="M74.6976 35.2701C73.4248 33.9992 75.1616 31.9165 76.6384 33.0224C78.3536 34.3076 76.1629 36.7331 74.6976 35.2701Z" fill="black"/>
<path d="M12.8055 35.0348C14.7377 34.824 15.0307 37.7329 13.2623 37.9724C11.1549 38.2579 10.8877 35.2443 12.8055 35.0348Z" fill="black"/>
<path d="M24.387 19.3385C26.1612 19.0359 26.7789 21.4557 25.3021 22.1112C23.2249 23.032 22.3069 19.6928 24.387 19.3385Z" fill="black"/>
<path d="M12.5987 61.6782C14.4432 61.5319 14.7793 64.4408 12.8544 64.6244C10.9294 64.808 10.6708 61.8317 12.5987 61.6782Z" fill="black"/>
<path d="M29.3516 15.8258C29.9535 15.7239 30.5468 15.8516 30.916 16.3651C31.8584 17.6747 30.2681 19.4002 28.8632 18.4148C27.8677 17.7177 28.2283 16.0151 29.3516 15.8272V15.8258Z" fill="black"/>
<path d="M79.0677 37.8591C80.9955 37.5622 81.3245 40.3937 79.7256 40.7178C77.5722 41.1553 77.1959 38.146 79.0677 37.8591Z" fill="black"/>
<path d="M38.7282 13.0029C40.8816 12.5655 41.2579 15.5748 39.3861 15.8616C37.4583 16.1586 37.1293 13.3271 38.7282 13.0029Z" fill="black"/>
<path d="M19.1451 22.9173C21.2985 22.4798 21.6749 25.4891 19.8031 25.776C17.9313 26.0628 17.5463 23.2414 19.1451 22.9173Z" fill="black"/>
<path d="M13.4923 30.7676C15.4201 30.4707 15.7491 33.3021 14.1502 33.6263C11.9969 34.0638 11.6205 31.0544 13.4923 30.7676Z" fill="black"/>
<path d="M76.2405 28.4956C78.3365 28.1384 78.5203 31.2998 76.5623 31.3643C74.7968 31.4231 74.5612 28.781 76.2405 28.4956Z" fill="black"/>
<path d="M9.08354 56.6536C10.9036 56.5618 11.1076 59.3617 9.33781 59.5295C7.33814 59.7189 7.15139 56.7512 9.08354 56.6536Z" fill="black"/>
<path d="M14.1129 26.4975C16.5047 26.06 16.4228 29.557 14.3097 29.2988C12.6907 29.1009 12.741 26.7485 14.1129 26.4975Z" fill="black"/>
<path d="M34.5923 12.247C35.5404 12.1007 36.3765 12.8882 36.2587 13.842C36.105 15.0899 34.5003 15.5159 33.716 14.5348C33.0566 13.7101 33.5292 12.4105 34.5923 12.247Z" fill="black"/>
<path d="M15.1471 71.181C17.5389 70.7435 17.4571 74.2405 15.3439 73.9823C13.7249 73.7843 13.7752 71.432 15.1471 71.181Z" fill="black"/>
<path d="M11.6994 66.0875C12.6475 65.9412 13.4836 66.7287 13.3658 67.6825C13.2121 68.9304 11.6075 69.3565 10.8231 68.3753C10.1638 67.5506 10.6364 66.251 11.6994 66.0875Z" fill="black"/>
<path d="M79.8261 33.589C81.7252 33.2849 82.0628 36.0963 80.4137 36.3789C78.3379 36.736 78.0678 33.8701 79.8261 33.589Z" fill="black"/>
<path d="M7.56213 38.6839C9.6207 38.3353 9.90082 41.3475 7.95 41.4852C6.25631 41.6057 5.90148 38.965 7.56213 38.6839Z" fill="black"/>
<path d="M6.80364 43.0214C8.86221 42.6729 9.14234 45.6851 7.19151 45.8228C5.49782 45.9432 5.14299 43.3026 6.80364 43.0214Z" fill="black"/>
<path d="M8.32493 60.9912C10.1019 60.9008 10.3088 63.6347 8.5792 63.7982C6.5982 63.9861 6.44737 61.0858 8.32493 60.9912Z" fill="black"/>
<path d="M6.25486 47.2887C8.05916 47.1452 8.31056 49.925 6.51057 50.0972C4.57123 50.2836 4.4362 47.4335 6.25486 47.2887Z" fill="black"/>
<path d="M43.97 9.493C46.043 9.14015 46.1953 12.2298 44.2918 12.2929C42.5694 12.3503 42.3238 9.7727 43.97 9.493Z" fill="black"/>
<path d="M8.25032 34.4152C10.6206 33.9318 10.4913 37.5737 8.33364 37.1233C6.89565 36.8221 6.90715 34.6891 8.25032 34.4152Z" fill="black"/>
<path d="M5.35573 51.6276C6.86266 51.3867 7.5953 53.3675 6.33545 54.1894C5.35142 54.832 4.02836 53.9398 4.21799 52.7637C4.29987 52.2573 4.84863 51.7094 5.35573 51.6276Z" fill="black"/>
<path d="M39.7667 8.73423C41.5308 8.54059 41.8296 11.2329 40.1546 11.4653C38.2253 11.7335 37.938 8.93504 39.7667 8.73423Z" fill="black"/>
<path d="M77.2103 24.2254C78.9399 24.138 79.1253 26.7471 77.5278 26.9579C75.5296 27.2218 75.3615 24.3201 77.2103 24.2254Z" fill="black"/>
<path d="M80.5158 29.3217C82.5887 28.966 82.751 32.027 80.8361 32.0513C79.1841 32.0729 78.9916 29.5828 80.5158 29.3217Z" fill="black"/>
<path d="M10.8015 70.4925C12.7567 70.0937 13.1374 72.7831 11.5141 73.1317C9.65948 73.5305 9.25868 70.808 10.8015 70.4925Z" fill="black"/>
<path d="M4.52832 56.0355C6.51793 55.6912 6.75496 58.5169 4.98658 58.7005C3.21819 58.8841 2.96823 56.3051 4.52832 56.0355Z" fill="black"/>
<path d="M7.28644 65.3976C9.55043 64.9787 9.43838 68.4169 7.37119 68.0354C5.90161 67.7643 5.99355 65.6371 7.28644 65.3976Z" fill="black"/>
<path d="M83.4549 36.7159C82.1964 35.4594 84.1487 33.5302 85.3884 34.8197C86.6138 36.0934 84.686 37.9452 83.4549 36.7159Z" fill="black"/>
<path d="M53.2775 6.80645C55.1996 6.412 55.5515 9.25349 53.7358 9.40123C52.1096 9.53462 51.8194 7.10624 53.2775 6.80645Z" fill="black"/>
<path d="M49.0037 6.05056C51.318 5.65467 50.9646 9.24346 48.8686 8.56214C47.5973 8.14904 47.8157 6.25424 49.0037 6.05056Z" fill="black"/>
<path d="M1.77005 46.6719C3.37468 46.395 3.92918 48.5337 2.63198 49.116C0.751543 49.9609 -0.0126989 46.9788 1.77005 46.6719Z" fill="black"/>
<path d="M3.76979 60.3715C5.73211 60.0086 5.90306 62.8831 4.15766 62.9677C2.50994 63.0481 2.32031 60.6398 3.76979 60.3715Z" fill="black"/>
<path d="M44.7286 5.29319C46.3332 5.01635 46.8877 7.155 45.5905 7.73735C43.7101 8.5822 42.9458 5.60014 44.7286 5.29319Z" fill="black"/>
<path d="M81.5514 25.0531C83.1819 24.9986 83.35 27.5159 81.7396 27.6521C79.8965 27.807 79.8261 25.1119 81.5514 25.0531Z" fill="black"/>
<path d="M77.6885 20.0256C79.8563 19.6268 79.7629 22.8542 77.8264 22.54C76.4545 22.3177 76.4042 20.2608 77.6885 20.0256Z" fill="black"/>
<path d="M0.942608 51.008C3.11036 50.6092 3.01698 53.8366 1.08052 53.5225C-0.291384 53.3001 -0.341663 51.2432 0.942608 51.008Z" fill="black"/>
<path d="M84.9993 30.1479C85.7994 30.049 86.522 30.7289 86.4574 31.5321C86.3611 32.7255 84.7393 33.1228 84.0871 32.1231C83.5872 31.3557 84.0828 30.2613 84.9993 30.1465V30.1479Z" fill="black"/>
<path d="M3.08026 64.7105C4.89031 64.4064 5.12734 67.1791 3.32878 67.2149C1.82041 67.2451 1.58769 64.9601 3.08026 64.7105Z" fill="black"/>
<path d="M82.1707 20.8518C83.738 20.6022 84.0971 22.9689 82.6893 23.23C80.9367 23.5541 80.6279 21.0985 82.1707 20.8518Z" fill="black"/>
<path d="M54.1062 2.60806C55.9076 2.29967 56.0814 4.91453 54.4251 4.99629C52.9469 5.07087 52.7515 2.83899 54.1062 2.60806Z" fill="black"/>
<path d="M85.6169 25.9467C87.4169 25.5694 87.6554 28.256 86.0062 28.3363C84.5021 28.4095 84.3053 26.2221 85.6169 25.9467Z" fill="black"/>
<path d="M78.786 15.767C80.53 15.7311 80.2628 18.6113 78.4269 18.0849C77.1254 17.712 77.4702 15.7942 78.786 15.767Z" fill="black"/>
<path d="M58.5195 3.36394C60.0537 3.11867 60.4056 5.4194 59.0381 5.67328C57.2797 5.99888 57.0685 3.59631 58.5195 3.36394Z" fill="black"/>
<path d="M63.0029 4.12419C64.4466 4.07399 64.6219 6.30013 63.1925 6.4493C61.5678 6.61856 61.4242 4.17869 63.0029 4.12419Z" fill="black"/>
<path d="M74.9289 10.7997C76.749 10.4239 76.8381 13.1134 75.1918 13.0589C73.8673 13.0158 73.7682 11.0407 74.9289 10.7997Z" fill="black"/>
<path d="M67.1387 4.94894C68.5321 4.71226 69.0205 6.52387 67.8727 7.05889C66.2653 7.80763 65.5929 5.20999 67.1387 4.94894Z" fill="black"/>
<path d="M86.3754 21.7469C88.1538 21.3782 88.23 23.9888 86.6383 23.9371C85.3425 23.8941 85.2419 21.9821 86.3754 21.7469Z" fill="black"/>
<path d="M82.8587 16.652C83.8586 16.4454 84.6156 17.4968 84.0511 18.323C83.3773 19.3084 81.869 18.7175 82.0557 17.5011C82.106 17.1712 82.5341 16.7194 82.8602 16.652H82.8587Z" fill="black"/>
<path d="M72.4425 7.59249C71.4326 8.53918 69.9572 7.06608 70.9054 6.05772C71.8535 5.04936 73.494 6.60708 72.4425 7.59249Z" fill="black"/>
<path d="M79.2732 11.6259C80.8865 11.2932 81.056 13.6742 79.5921 13.7402C78.3035 13.7976 78.1024 11.8669 79.2732 11.6259Z" fill="black"/>
<path d="M75.6874 6.59845C77.1843 6.25994 77.4917 8.36846 76.1385 8.56497C74.8599 8.75144 74.6229 6.83943 75.6874 6.59845Z" fill="black"/>
<path d="M87.3435 17.4753C88.5832 17.3318 88.8375 19.2725 87.6653 19.4547C86.2589 19.6727 86.0061 17.6302 87.3435 17.4753Z" fill="black"/>
<path d="M83.7581 12.4507C85.0079 12.2685 85.2607 14.1389 84.1373 14.3469C82.6821 14.6166 82.5514 12.6257 83.7581 12.4507Z" fill="black"/>
<path d="M67.8971 0.817984C69.6152 0.499554 69.3452 3.11154 67.8583 2.68266C66.8987 2.40583 66.9892 0.985805 67.8971 0.817984Z" fill="black"/>
<path d="M62.2487 0.651571C63.9668 0.333141 63.6968 2.94513 62.2099 2.51625C61.2503 2.23942 61.3408 0.819393 62.2487 0.651571Z" fill="black"/>
<path d="M80.9926 8.97092C80.1709 9.79138 78.8148 8.50332 79.7126 7.65848C80.5932 6.82941 81.787 8.17772 80.9926 8.97092Z" fill="black"/>
<path d="M71.8003 1.85646C72.622 1.036 73.9781 2.32406 73.0802 3.1689C72.1824 4.01375 71.0059 2.64966 71.8003 1.85646Z" fill="black"/>
<path d="M88.0317 13.3472C89.181 13.1478 89.3634 14.9436 88.2745 15.0369C87.1856 15.1301 87.0219 13.5222 88.0317 13.3472Z" fill="black"/>
<path d="M76.515 2.46749C77.7361 2.18636 77.9688 3.96497 76.8267 4.09263C75.7996 4.20738 75.6473 2.66687 76.515 2.46749Z" fill="black"/>
<path d="M84.5856 8.31827C85.7147 8.19205 85.7463 10.1385 84.4448 9.87313C83.593 9.69957 83.7179 8.41581 84.5856 8.31827Z" fill="black"/>
<path d="M29.6375 20.7915C31.3556 20.4731 31.0856 23.0851 29.5988 22.6562C28.6391 22.3794 28.7296 20.9593 29.6375 20.7915Z" fill="black"/>
<path d="M33.6557 16.7796C35.3738 16.4612 35.1038 19.0731 33.6169 18.6443C32.6573 18.3674 32.7478 16.9474 33.6557 16.7796Z" fill="black"/>
<path d="M63.6234 47.5167C64.7712 46.3707 66.666 48.1708 65.4119 49.3499C64.1822 50.5074 62.5129 48.6255 63.6234 47.5167Z" fill="black"/>
<path d="M80.2816 3.98215C80.9625 3.30226 82.0873 4.36943 81.3432 5.07084C80.6134 5.7579 79.6236 4.64053 80.2816 3.98215Z" fill="black"/>
<path d="M0.215692 56.5174C0.896615 55.8375 2.02143 56.9047 1.2773 57.6061C0.547534 58.2931 -0.442245 57.1757 0.215692 56.5174Z" fill="black"/>
<path d="M0.215692 60.8377C0.896615 60.1578 2.02143 61.225 1.2773 61.9264C0.547534 62.6134 -0.442245 61.4961 0.215692 60.8377Z" fill="black"/>
<path d="M2.85184 42.5954C3.67785 41.7706 5.0397 43.0644 4.13755 43.9135C3.25263 44.7455 2.05312 43.3929 2.85184 42.5954Z" fill="black"/>
<path d="M12.7164 57.8499C13.5424 57.0251 14.9043 58.3189 14.0021 59.1681C13.1172 60 11.9177 58.6474 12.7164 57.8499Z" fill="black"/>
<path d="M9.43539 31.5249C10.1292 30.8321 11.2727 31.9194 10.5157 32.6323C9.77298 33.3308 8.76453 32.1948 9.43539 31.5249Z" fill="black"/>
</svg>
